<svg id="레이어_1" data-name="레이어 1" xmlns="http://www.w3.org/2000/svg" viewBox="0 0 85.83 85.44"><path d="M0,77.74V76.63Q0,55.89,0,35.15c0-4.41,3.32-6.52,8.2-6.52,8.1,0,15.27,0,22.81,0,5,0,8.35,2.15,8.34,6.61q0,21.66,0,43.33c0,2.76-.83,4.91-3,6.31a4,4,0,0,1-2.13.59H5.61A5.41,5.41,0,0,1,1.8,83.9a5.67,5.67,0,0,1-1.34-2C0,81,0,79.76,0,77.74Z"/><path d="M51.57,85.44c-3.22-.17-5.16-3.58-5.11-6.71.06-3.75.07-7.5,0-11.25a6.49,6.49,0,0,1,6.71-6.75c8.68.11,17.36,0,26,0,4,0,6.61,2.64,6.62,6.68,0,3.87,0,7.74,0,11.61a6.67,6.67,0,0,1-3.35,6.25,1.44,1.44,0,0,1-.56.13Z"/><path d="M43,0H79c4.26,0,6.83,2.58,6.84,6.83q0,4.08,0,8.16a6.23,6.23,0,0,1-6.49,6.46q-32.34,0-64.69,0c-2.72,0-5.44,0-8.15,0A6.24,6.24,0,0,1,0,15c0-2.86,0-5.73,0-8.59A6.2,6.2,0,0,1,6.41,0Z"/><path d="M66.17,53.63h-13A6.29,6.29,0,0,1,46.47,47c0-3.92,0-7.85,0-11.78a6.25,6.25,0,0,1,6.64-6.61q13,0,26,0a6.27,6.27,0,0,1,6.66,6.67q0,5.93,0,11.87a6.25,6.25,0,0,1-6.45,6.51C75,53.65,70.57,53.63,66.17,53.63Z"/></svg>