<svg id="레이어_1" data-name="레이어 1" xmlns="http://www.w3.org/2000/svg" viewBox="0 0 170 147"><defs></defs><path class="cls-1" d="M162.22,24.85c-14.71,15.38-38.41,40.14-47.84,50C105.57,84,95.71,94.17,86.89,103.36c-1.34,1.4-2.38,2.4-4.31.53C70,91.71,51.32,74.7,38.7,62.58c-.39-.38-.71-.83-1.44-1.7,4.2-4.36,8.33-8.78,12.7-13,.4-.39,2.6.48,3.46,1.29C60.68,56,74,67.79,81,74.89c2.49,2.52,3.81,2.07,6-.27,13.34-14.08,44.16-46.13,61.79-64.51A46.49,46.49,0,0,0,129,2.36C112.77-.13,98.42,4.83,87,17c-2.34,2.49-2.36,2.48-4.67.05C72.72,7,61.07,1.76,46.06,1.9c-8-.62-16.15,2.43-23.45,7C12.15,15.38,4.86,24.73,1.93,37-2.36,55,.86,71.43,14.15,84.5c19.93,19.6,40.56,38.49,61,57.58,5.81,5.43,13.28,5.29,19.24-.28C114.23,123.25,134,104.56,153.79,86c16-14.93,19.46-39.7,10-58.25C163.3,26.76,162.77,25.8,162.22,24.85Z"/></svg>