<svg id="레이어_1" data-name="레이어 1" xmlns="http://www.w3.org/2000/svg" viewBox="0 0 109 94"><defs><style>.cls-1{fill:#fff;}</style></defs><path class="cls-1" d="M4.57,79.63H0V76.91H12.51v2.72H7.85V93.31H4.57Z"/><path class="cls-1" d="M13.66,85c0-5.34,3-8.44,7.34-8.44s7.34,3.12,7.34,8.44-3,8.58-7.34,8.58S13.66,90.37,13.66,85ZM25,85c0-3.52-1.55-5.63-4-5.63S17,81.52,17,85s1.55,5.75,4,5.75S25,88.55,25,85Z"/><path class="cls-1" d="M31.55,76.91h4.5c5,0,8.11,2.59,8.11,8.13s-3.1,8.27-7.93,8.27H31.55Zm4.3,13.77c3.06,0,5-1.64,5-5.64s-1.91-5.52-5-5.52h-1V90.68Z"/><path class="cls-1" d="M46.55,85c0-5.34,3-8.44,7.34-8.44s7.34,3.12,7.34,8.44-3,8.58-7.34,8.58S46.55,90.37,46.55,85Zm11.33,0c0-3.52-1.55-5.63-4-5.63s-4,2.11-4,5.63,1.55,5.75,4,5.75S57.88,88.55,57.88,85Z"/><path class="cls-1" d="M64.44,76.91h3.28V90.57h6.65v2.74H64.44Z"/><path class="cls-1" d="M77.23,76.91h3.28v16.4H77.23Z"/><path class="cls-1" d="M83.46,91.23,85.34,89a6.46,6.46,0,0,0,4.17,1.82c1.71,0,2.62-.73,2.62-1.89s-1-1.59-2.46-2.21l-2.2-.94a4.74,4.74,0,0,1-3.32-4.41c0-2.68,2.35-4.74,5.67-4.74A7.29,7.29,0,0,1,95,78.7L93.3,80.77a5.21,5.21,0,0,0-3.48-1.36c-1.44,0-2.37.65-2.37,1.73s1.18,1.6,2.57,2.15l2.15.91c2,.82,3.31,2.09,3.31,4.46,0,2.68-2.24,5-6,5A8.74,8.74,0,0,1,83.46,91.23Z"/><path class="cls-1" d="M101.13,79.63H96.51V76.91h12.55v2.72h-4.65V93.31h-3.28Z"/><rect class="cls-1" x="6.5" y="0.5" width="96" height="7" rx="3.5"/><rect class="cls-1" x="6.5" y="14.5" width="96" height="7" rx="3.5"/><rect class="cls-1" x="6.5" y="28.5" width="96" height="7" rx="3.5"/><rect class="cls-1" x="6.5" y="42.5" width="96" height="7" rx="3.5"/><rect class="cls-1" x="6.5" y="56.5" width="96" height="7" rx="3.5"/></svg>