<svg id="레이어_1" data-name="레이어 1" xmlns="http://www.w3.org/2000/svg" viewBox="0 0 95.35 109.39"><path d="M7,27.58H88.53c-.36,6.73-.68,13.38-1.09,20-1,16.72-2.16,33.43-3.15,50.15-.47,7.88-4.21,11.61-12.06,11.61q-24.62,0-49.23,0c-7.63,0-11.48-3.8-11.93-11.39C9.75,75.69,8.34,53.4,7,31.11,6.91,30,7,28.89,7,27.58ZM47.82,75.05C49.13,76.72,50,78,51,79a96.42,96.42,0,0,0,7.11,6.9,4.74,4.74,0,0,0,6.81-.27,4.69,4.69,0,0,0,.38-6.78,36.89,36.89,0,0,0-3-3.26c-2.36-2.4-4.74-4.77-7.47-7.51,3.6-3.43,6.9-6.41,10-9.58,1.81-1.86,2.66-4.42.73-6.46a8.13,8.13,0,0,0-5.22-2.14c-1.29,0-2.83,1.33-3.9,2.41-2.86,2.88-5.52,5.95-8.49,9.2-3.76-3.86-6.65-7.29-10.05-10.1A7.61,7.61,0,0,0,32,50.23c-1.29.3-2.87,2.57-2.94,4a7.73,7.73,0,0,0,2.24,5c2.87,3,6.12,5.69,9.73,9-3.43,3.19-6.14,5.61-8.73,8.15-3.95,3.88-4.49,6.79-1.87,9.35,2.46,2.39,5.5,1.81,9.12-1.89C42.2,81.16,44.71,78.38,47.82,75.05Z"/><path d="M47.69,20.42c-13.34,0-26.67,0-40,0-5.1,0-7.84-2.65-7.67-7.1C.15,9.34,2.75,7,7.32,6.88c5.58-.1,11.17-.12,16.75,0,2.16.05,3.55-.37,4.47-2.59C29.8,1.27,32.42,0,35.69,0q12,0,23.94,0c3.43,0,6,1.41,7.33,4.57.81,1.92,2,2.35,4,2.32,5.58-.11,11.17-.09,16.75,0,5,0,7.68,2.49,7.69,6.75s-2.7,6.76-7.66,6.78C74.36,20.45,61,20.42,47.69,20.42Z"/></svg>